# xmcd CD database file
#
# Track frame offsets:
#	150
#	22525
#	46790
#	77950
#	98770
#	124390
#	147047
#	153492
#
# Disc length: 2450 seconds
#
# Revision: 0
# Processed by: cddbd v1.5.2PL0 Copyright (c) Steve Scherf et al.
# Submitted via: CDex 1.51
#
DISCID=58099008
DTITLE=BlixBand - På en lyserød sky
DYEAR=1996
DGENRE=Jazz
TTITLE0=Extensions
TTITLE1=Månestråle
TTITLE2=Line
TTITLE3=På en lyserød sky
TTITLE4=Thomas
TTITLE5=Under solen finnes bringebær
TTITLE6=Interlude
TTITLE7=Blues Blix
EXTD=YEAR: 1996
EXTT0=
EXTT1=
EXTT2=
EXTT3=
EXTT4=
EXTT5=
EXTT6=
EXTT7=
PLAYORDER=
